<svg fill="#ffffff" role="img" viewBox="0 0 24 24" xmlns="http://www.w3.org/2000/svg"><title>Bento</title><path d="M0 3.2A3.2 3.2 0 0 1 3.2 0h4.267a3.2 3.2 0 0 1 3.2 3.2v4.267a3.2 3.2 0 0 1-3.2 3.2H3.2a3.2 3.2 0 0 1-3.2-3.2Zm13.333 0A3.2 3.2 0 0 1 16.533 0h4.267a3.2 3.2 0 0 1 3.2 3.2v4.267a3.2 3.2 0 0 1-3.2 3.2h-4.267a3.2 3.2 0 0 1-3.2-3.2Zm0 13.333a3.2 3.2 0 0 1 3.2-3.2h4.267a3.2 3.2 0 0 1 3.2 3.2V20.8a3.2 3.2 0 0 1-3.2 3.2h-4.267a3.2 3.2 0 0 1-3.2-3.2ZM0 16.533a3.2 3.2 0 0 1 3.2-3.2h4.267a3.2 3.2 0 0 1 3.2 3.2V20.8a3.2 3.2 0 0 1-3.2 3.2H3.2A3.2 3.2 0 0 1 0 20.8Z"/></svg>