<svg fill="#ffffff" role="img" viewBox="0 0 24 24" xmlns="http://www.w3.org/2000/svg"><title>Threads</title><path d="M12.186 24h-.007c-3.581-.024-6.334-1.205-8.184-3.509C2.35 18.44 1.5 15.586 1.472 12.01v-.017c.03-3.579.879-6.43 2.525-8.482C5.845 1.205 8.6.024 12.18 0h.014c2.746.02 5.043.725 6.826 2.098 1.677 1.29 2.858 3.13 3.509 5.467l-2.04.569c-1.104-3.96-3.898-5.984-8.304-6.015-2.91.022-5.11.936-6.54 2.717C4.307 6.504 3.616 8.914 3.589 12c.027 3.086.718 5.496 2.057 7.164 1.43 1.783 3.631 2.698 6.54 2.717 2.623-.02 4.358-.631 5.8-2.045 1.647-1.613 1.618-3.593 1.09-4.798-.31-.71-.873-1.3-1.634-1.75-.192 1.352-.622 2.446-1.284 3.272-.886 1.102-2.14 1.704-3.73 1.79-1.202.065-2.361-.218-3.259-.801-1.063-.689-1.685-1.74-1.752-2.96-.065-1.187.408-2.26 1.33-3.02.88-.724 2.082-1.126 3.476-1.165 1.06-.03 2.04.102 2.935.384-.07-.958-.388-1.693-.944-2.187-.635-.564-1.558-.856-2.744-.868h-.06c-.87 0-1.907.257-2.558.709l-1.068-1.72C8.59 3.96 10.1 3.552 11.63 3.542h.08c1.708.016 3.052.604 3.995 1.744.812.982 1.267 2.3 1.357 3.921.461.199.893.44 1.29.724 1.148.82 1.96 1.903 2.418 3.222.602 1.736.506 3.848-.854 5.207-1.773 1.77-4.017 2.612-7.273 2.639h-.013Zm-1.39-6.22c.117 0 .235-.003.354-.01 1.083-.058 1.876-.463 2.426-1.147.397-.497.71-1.186.844-2.093-1.048-.396-2.263-.537-3.33-.507-.907.025-1.645.24-2.135.622-.49.383-.708.885-.679 1.418.038.696.446 1.236 1.149 1.522.498.203 1.069.3 1.642.3l-.272-.105Z"/></svg>